<svg xmlns="http://www.w3.org/2000/svg" width="1200" height="630" viewBox="0 0 1200 630">
  <defs>
    <linearGradient id="css-bg" x1="0" y1="0" x2="1" y2="1">
      <stop offset="0" stop-color="#0b5fff" stop-opacity="0.12"/>
      <stop offset="1" stop-color="#20b7c8" stop-opacity="0.12"/>
    </linearGradient>
    <linearGradient id="css-stroke" x1="0" y1="0" x2="1" y2="0">
      <stop offset="0" stop-color="#0b5fff"/>
      <stop offset="1" stop-color="#20b7c8"/>
    </linearGradient>
  </defs>

  <rect width="1200" height="630" fill="url(#css-bg)"/>

  <!-- Axes -->
  <g stroke="#0b5fff" stroke-opacity="0.16" stroke-width="4">
    <path d="M160 495H1040"/>
    <path d="M160 165V495"/>
  </g>

  <!-- Trend -->
  <path
    d="M180 445 C260 380, 320 410, 410 350 C500 290, 565 320, 660 265 C755 210, 820 245, 910 220 C965 205, 1000 210, 1020 195"
    fill="none"
    stroke="url(#css-stroke)"
    stroke-width="10"
    stroke-linecap="round"
    opacity="0.92"
  />

  <!-- Points -->
  <g opacity="0.98">
    <circle cx="180" cy="445" r="14" fill="#0b5fff"/>
    <circle cx="410" cy="350" r="14" fill="#0b5fff"/>
    <circle cx="660" cy="265" r="14" fill="#0b5fff"/>
    <circle cx="910" cy="220" r="14" fill="#0b5fff"/>
    <circle cx="1020" cy="195" r="14" fill="#20b7c8"/>
  </g>

  <!-- Small network motif -->
  <g fill="none" stroke="url(#css-stroke)" stroke-width="7" stroke-linecap="round" opacity="0.85">
    <path d="M260 245 C300 215, 340 215, 380 245"/>
    <path d="M380 245 C420 275, 460 275, 500 245"/>
    <path d="M380 245 C380 210, 400 195, 420 180"/>
  </g>
  <g opacity="0.98">
    <circle cx="260" cy="245" r="14" fill="#0b5fff"/>
    <circle cx="380" cy="245" r="14" fill="#0b5fff"/>
    <circle cx="500" cy="245" r="14" fill="#20b7c8"/>
    <circle cx="420" cy="180" r="14" fill="#20b7c8"/>
  </g>

  <!-- Corner accents -->
  <g opacity="0.9">
    <rect x="90" y="90" width="160" height="18" rx="9" fill="#0b5fff" fill-opacity="0.38"/>
    <rect x="260" y="90" width="92" height="18" rx="9" fill="#20b7c8" fill-opacity="0.38"/>
  </g>
</svg>
