<svg xmlns="http://www.w3.org/2000/svg" width="1200" height="630" viewBox="0 0 1200 630">
  <defs>
    <linearGradient id="bg3" x1="0" y1="0" x2="1" y2="1">
      <stop offset="0" stop-color="#20b7c8" stop-opacity="0.10"/>
      <stop offset="1" stop-color="#0b5fff" stop-opacity="0.10"/>
    </linearGradient>
  </defs>

  <rect x="0" y="0" width="1200" height="630" fill="url(#bg3)"/>

  <!-- Pipeline blocks -->
  <g font-family="Inter, system-ui, -apple-system, Segoe UI, Roboto, Helvetica Neue, Arial" font-size="22" font-weight="600" fill="#0b1220">
    <g>
      <rect x="140" y="260" width="180" height="84" rx="16" fill="#ffffff" fill-opacity="0.8" stroke="#0b5fff" stroke-opacity="0.2"/>
      <text x="175" y="312">script</text>
    </g>
    <g>
      <rect x="360" y="260" width="180" height="84" rx="16" fill="#ffffff" fill-opacity="0.8" stroke="#0b5fff" stroke-opacity="0.2"/>
      <text x="394" y="312">visuals</text>
    </g>
    <g>
      <rect x="580" y="260" width="180" height="84" rx="16" fill="#ffffff" fill-opacity="0.8" stroke="#0b5fff" stroke-opacity="0.2"/>
      <text x="603" y="312">subtitles</text>
    </g>
    <g>
      <rect x="800" y="260" width="180" height="84" rx="16" fill="#ffffff" fill-opacity="0.8" stroke="#0b5fff" stroke-opacity="0.2"/>
      <text x="835" y="312">publish</text>
    </g>
  </g>

  <!-- Arrows -->
  <g fill="none" stroke="#0b5fff" stroke-width="5" stroke-linecap="round" opacity="0.75">
    <path d="M320 302H360"/>
    <path d="M540 302H580"/>
    <path d="M760 302H800"/>
    <path d="M352 292 l10 10 l-10 10"/>
    <path d="M572 292 l10 10 l-10 10"/>
    <path d="M792 292 l10 10 l-10 10"/>
  </g>

  <g font-family="Inter, system-ui, -apple-system, Segoe UI, Roboto, Helvetica Neue, Arial" fill="#0b1220">
    <text x="140" y="115" font-size="48" font-weight="700">AI-native Media Pipeline</text>
    <text x="140" y="165" font-size="28" font-weight="500" opacity="0.85">code-first · multi-model · agentic production</text>
  </g>

  <g>
    <rect x="140" y="465" rx="14" ry="14" width="520" height="66" fill="#ffffff" fill-opacity="0.75"/>
    <text x="170" y="508" font-family="Inter, system-ui, -apple-system, Segoe UI, Roboto, Helvetica Neue, Arial" font-size="24" font-weight="600" fill="#0b5fff">
      low-cost, fast iteration, evaluation-aware
    </text>
  </g>
</svg>
