<svg xmlns="http://www.w3.org/2000/svg" width="1200" height="630" viewBox="0 0 1200 630">
  <defs>
    <linearGradient id="pipe-bg" x1="0" y1="0" x2="1" y2="1">
      <stop offset="0" stop-color="#20b7c8" stop-opacity="0.12"/>
      <stop offset="1" stop-color="#0b5fff" stop-opacity="0.12"/>
    </linearGradient>
  </defs>

  <rect width="1200" height="630" fill="url(#pipe-bg)"/>

  <!-- Pipeline blocks (no text; icon-like) -->
  <g opacity="0.95">
    <rect x="140" y="260" width="190" height="92" rx="18" fill="#ffffff" fill-opacity="0.82" stroke="#0b5fff" stroke-opacity="0.22" stroke-width="3"/>
    <rect x="370" y="260" width="190" height="92" rx="18" fill="#ffffff" fill-opacity="0.82" stroke="#0b5fff" stroke-opacity="0.22" stroke-width="3"/>
    <rect x="600" y="260" width="190" height="92" rx="18" fill="#ffffff" fill-opacity="0.82" stroke="#0b5fff" stroke-opacity="0.22" stroke-width="3"/>
    <rect x="830" y="260" width="190" height="92" rx="18" fill="#ffffff" fill-opacity="0.82" stroke="#0b5fff" stroke-opacity="0.22" stroke-width="3"/>
  </g>

  <!-- Icons inside blocks -->
  <g fill="none" stroke="#0b5fff" stroke-width="8" stroke-linecap="round" stroke-linejoin="round" opacity="0.85">
    <!-- doc -->
    <path d="M190 282 h70 v50 h-70 z"/>
    <path d="M205 300 h40"/>
    <path d="M205 318 h52"/>
    <!-- image -->
    <path d="M420 286 h90 v56 h-90 z"/>
    <path d="M432 330 l20 -18 l18 16 l14 -12 l24 20"/>
    <circle cx="447" cy="302" r="6"/>
    <!-- captions -->
    <path d="M650 286 h90 v56 h-90 z"/>
    <path d="M665 304 h60"/>
    <path d="M665 322 h46"/>
    <path d="M665 340 h54"/>
    <!-- publish -->
    <path d="M900 332 v-30"/>
    <path d="M880 314 l20 -20 l20 20"/>
    <path d="M870 346 h60"/>
  </g>

  <!-- Arrows -->
  <g fill="none" stroke="#0b5fff" stroke-width="7" stroke-linecap="round" opacity="0.70">
    <path d="M330 306H370"/>
    <path d="M560 306H600"/>
    <path d="M790 306H830"/>
    <path d="M360 296 l10 10 l-10 10"/>
    <path d="M590 296 l10 10 l-10 10"/>
    <path d="M820 296 l10 10 l-10 10"/>
  </g>

  <!-- Corner accents -->
  <g opacity="0.9">
    <rect x="90" y="90" width="150" height="18" rx="9" fill="#20b7c8" fill-opacity="0.42"/>
    <rect x="250" y="90" width="120" height="18" rx="9" fill="#0b5fff" fill-opacity="0.32"/>
  </g>
</svg>
